<?xml version="1.0" encoding="UTF-8" standalone="no"?><svg xmlns="http://www.w3.org/2000/svg" xmlns:xlink="http://www.w3.org/1999/xlink" contentScriptType="application/ecmascript" contentStyleType="text/css" height="527px" preserveAspectRatio="none" style="width:672px;height:527px;" version="1.1" viewBox="0 0 672 527" width="672px" zoomAndPan="magnify"><defs/><g><text fill="#000000" font-family="sans-serif" font-size="18" lengthAdjust="spacing" textLength="60" x="299.9167" y="18.6855">Sample</text><!--MD5=[fa7b1b04eb5b4d76077831360fd36dbf]
class Asset\Image--><rect codeLine="26" fill="#B0E0E6" height="40.1875" id="Asset\Image" style="stroke:#696969;stroke-width:1.0;" width="45" x="240.5" y="268.6406"/><text fill="#000000" font-family="sans-serif" font-size="12" font-style="italic" lengthAdjust="spacing" textLength="43" x="241.5" y="286.0977">«asset»</text><text fill="#000000" font-family="sans-serif" font-size="12" font-weight="bold" lengthAdjust="spacing" textLength="35" x="245.5" y="301.1914">Image</text><!--MD5=[751a80e395721099d806782fc3bbd655]
class Asset--><rect codeLine="30" fill="#B0E0E6" height="40.1875" id="Asset" style="stroke:#696969;stroke-width:1.0;" width="45" x="177.5" y="481.6406"/><text fill="#000000" font-family="sans-serif" font-size="12" font-style="italic" lengthAdjust="spacing" textLength="43" x="178.5" y="499.0977">«asset»</text><text fill="#000000" font-family="sans-serif" font-size="12" font-weight="bold" lengthAdjust="spacing" textLength="33" x="183.5" y="514.1914">Asset</text><!--MD5=[b076e8850c7b1df38f192180768a5fee]
class Object\Category--><rect codeLine="34" fill="#FFF8DC" height="46.9297" id="Object\Category" style="stroke:#696969;stroke-width:1.0;" width="143" x="332.5" y="265.1406"/><text fill="#000000" font-family="sans-serif" font-size="12" font-weight="bold" lengthAdjust="spacing" textLength="51" x="378.5" y="282.5977">Category</text><line style="stroke:#696969;stroke-width:1.0;" x1="333.5" x2="474.5" y1="290.2344" y2="290.2344"/><text fill="#000000" font-family="sans-serif" font-size="11" font-weight="bold" lengthAdjust="spacing" textLength="31" x="338.5" y="305.6533">name</text><text fill="#000000" font-family="sans-serif" font-size="11" lengthAdjust="spacing" textLength="100" x="369.5" y="305.6533">: varchar[190] / input</text><!--MD5=[881f79c812f9adbfb0b1112bc9cae5a9]
class Object\Color--><rect codeLine="39" fill="#FFF8DC" height="46.9297" id="Object\Color" style="stroke:#696969;stroke-width:1.0;" width="155.3333" x="510.5" y="265.1406"/><text fill="#000000" font-family="sans-serif" font-size="12" font-weight="bold" lengthAdjust="spacing" textLength="30" x="573.1667" y="282.5977">Color</text><line style="stroke:#696969;stroke-width:1.0;" x1="511.5" x2="664.8333" y1="290.2344" y2="290.2344"/><text fill="#000000" font-family="sans-serif" font-size="11" font-weight="bold" lengthAdjust="spacing" textLength="31" x="516.5" y="305.6533">name</text><text fill="#000000" font-family="sans-serif" font-size="11" lengthAdjust="spacing" textLength="100" x="547.5" y="305.6533">: varchar[190] / input</text><path d="M655.1667,297.987 C653.1408,297.987 651.5,299.6278 651.5,301.6536 C651.5,303.6795 653.1408,305.3203 655.1667,305.3203 C657.1925,305.3203 658.8333,303.6795 658.8333,301.6536 C658.8333,299.6278 657.1925,297.987 655.1667,297.987 M655.1667,298.9036 C655.4692,298.9036 655.7533,298.9861 656.0283,299.0778 C655.8358,299.2611 655.6158,299.4261 655.6525,299.5911 C655.6892,299.7561 656.285,299.7103 656.285,300.0495 C656.285,300.297 655.9,300.3703 656.1658,300.6545 C656.4867,300.9753 655.5792,301.5528 655.5608,301.9745 C655.5333,302.7353 656.3308,302.8636 656.9633,302.8636 C657.3483,302.8636 657.4492,303.047 657.4217,303.267 C656.9267,303.9728 656.0833,304.4128 655.1575,304.4128 C654.8092,304.4128 654.4883,304.3303 654.1858,304.2111 C654.3875,303.8078 653.9292,303.0103 653.4983,302.7536 C653.2875,302.5428 652.8383,302.6253 652.5817,302.5245 C652.4992,302.277 652.4167,302.0295 652.4075,301.7545 C652.435,301.7086 652.4808,301.672 652.5542,301.672 C652.7283,301.672 652.9667,302.0203 653.095,301.9836 C653.26,301.947 652.4167,300.7828 652.8108,300.5536 C652.9942,300.4436 653.3608,300.9111 653.2417,300.407 C653.1317,299.9395 653.5717,300.1503 653.8467,300.0311 C654.085,299.9303 654.2592,299.6553 653.9658,299.4903 C653.9108,299.4628 653.8467,299.3986 653.7642,299.3161 C654.1767,299.0686 654.6533,298.9128 655.1667,298.9128 M657.2842,299.912 C657.4492,300.1136 657.5775,300.3336 657.6875,300.572 C657.6875,300.5811 657.6875,300.5903 657.6875,300.5995 C657.6508,300.6636 657.5867,300.7003 657.4858,300.8011 C657.2292,301.0578 657.1925,300.6086 657.0825,300.517 C656.9633,300.407 656.5325,300.5353 656.4775,300.3978 C656.4133,300.2328 656.9358,300.0128 657.2842,299.912 " fill="#000000" style="stroke:;stroke-width:0.0;stroke-dasharray:;"/><!--MD5=[1b5dc5a0c95636e215c17208603ffe5d]
class Object\Product--><rect codeLine="44" fill="#FFF8DC" height="88.4375" id="Object\Product" style="stroke:#696969;stroke-width:1.0;" width="202" x="176" y="29.6406"/><text fill="#000000" font-family="sans-serif" font-size="12" font-weight="bold" lengthAdjust="spacing" textLength="45" x="254.5" y="47.0977">Product</text><line style="stroke:#696969;stroke-width:1.0;" x1="177" x2="377" y1="54.7344" y2="54.7344"/><text fill="#000000" font-family="sans-serif" font-size="11" font-weight="bold" lengthAdjust="spacing" textLength="21" x="182" y="70.1533">gtin</text><text fill="#000000" font-family="sans-serif" font-size="11" lengthAdjust="spacing" textLength="100" x="203" y="70.1533">: varchar[190] / input</text><text fill="#000000" font-family="sans-serif" font-size="11" font-weight="bold" lengthAdjust="spacing" textLength="31" x="182" y="83.9893">name</text><text fill="#000000" font-family="sans-serif" font-size="11" lengthAdjust="spacing" textLength="100" x="213" y="83.9893">: varchar[190] / input</text><path d="M320.6667,76.3229 C318.6408,76.3229 317,77.9638 317,79.9896 C317,82.0154 318.6408,83.6563 320.6667,83.6563 C322.6925,83.6563 324.3333,82.0154 324.3333,79.9896 C324.3333,77.9638 322.6925,76.3229 320.6667,76.3229 M320.6667,77.2396 C320.9692,77.2396 321.2533,77.3221 321.5283,77.4138 C321.3358,77.5971 321.1158,77.7621 321.1525,77.9271 C321.1892,78.0921 321.785,78.0463 321.785,78.3854 C321.785,78.6329 321.4,78.7063 321.6658,78.9904 C321.9867,79.3113 321.0792,79.8888 321.0608,80.3104 C321.0333,81.0713 321.8308,81.1996 322.4633,81.1996 C322.8483,81.1996 322.9492,81.3829 322.9217,81.6029 C322.4267,82.3088 321.5833,82.7488 320.6575,82.7488 C320.3092,82.7488 319.9883,82.6663 319.6858,82.5471 C319.8875,82.1438 319.4292,81.3463 318.9983,81.0896 C318.7875,80.8788 318.3383,80.9613 318.0817,80.8604 C317.9992,80.6129 317.9167,80.3654 317.9075,80.0904 C317.935,80.0446 317.9808,80.0079 318.0542,80.0079 C318.2283,80.0079 318.4667,80.3563 318.595,80.3196 C318.76,80.2829 317.9167,79.1188 318.3108,78.8896 C318.4942,78.7796 318.8608,79.2471 318.7417,78.7429 C318.6317,78.2754 319.0717,78.4863 319.3467,78.3671 C319.585,78.2663 319.7592,77.9913 319.4658,77.8263 C319.4108,77.7988 319.3467,77.7346 319.2642,77.6521 C319.6767,77.4046 320.1533,77.2488 320.6667,77.2488 M322.7842,78.2479 C322.9492,78.4496 323.0775,78.6696 323.1875,78.9079 C323.1875,78.9171 323.1875,78.9263 323.1875,78.9354 C323.1508,78.9996 323.0867,79.0363 322.9858,79.1371 C322.7292,79.3938 322.6925,78.9446 322.5825,78.8529 C322.4633,78.7429 322.0325,78.8713 321.9775,78.7338 C321.9133,78.5688 322.4358,78.3488 322.7842,78.2479 " fill="#000000" style="stroke:;stroke-width:0.0;stroke-dasharray:;"/><text fill="#000000" font-family="sans-serif" font-size="11" font-weight="bold" lengthAdjust="spacing" textLength="35" x="182" y="97.8252">length</text><text fill="#000000" font-family="sans-serif" font-size="11" lengthAdjust="spacing" textLength="155" x="217" y="97.8252">: float / quantityValue [m/cm/mm]</text><text fill="#000000" font-family="sans-serif" font-size="11" font-weight="bold" lengthAdjust="spacing" textLength="31" x="182" y="111.6611">width</text><text fill="#000000" font-family="sans-serif" font-size="11" lengthAdjust="spacing" textLength="155" x="213" y="111.6611">: float / quantityValue [cm/m/mm]</text><polygon fill="#C0C0C0" points="77,489.6406,89,501.6406,77,513.6406,65,501.6406,77,489.6406" style="stroke:#696969;stroke-width:1.5;"/><!--MD5=[ef698d8d78ed8dfb07a819144feb0b4d]
class Asset\Archive--><rect codeLine="54" fill="#B0E0E6" height="40.1875" id="Asset\Archive" style="stroke:#696969;stroke-width:1.0;" width="49" x="160.5" y="380.6406"/><text fill="#000000" font-family="sans-serif" font-size="12" font-style="italic" lengthAdjust="spacing" textLength="43" x="163.5" y="398.0977">«asset»</text><text fill="#000000" font-family="sans-serif" font-size="12" font-weight="bold" lengthAdjust="spacing" textLength="43" x="163.5" y="413.1914">Archive</text><!--MD5=[7b61b83b3ed61aa3993495c5c5846dc5]
class Asset\Document--><rect codeLine="58" fill="#B0E0E6" height="40.1875" id="Asset\Document" style="stroke:#696969;stroke-width:1.0;" width="64" x="61" y="380.6406"/><text fill="#000000" font-family="sans-serif" font-size="12" font-style="italic" lengthAdjust="spacing" textLength="43" x="71.5" y="398.0977">«asset»</text><text fill="#000000" font-family="sans-serif" font-size="12" font-weight="bold" lengthAdjust="spacing" textLength="58" x="64" y="413.1914">Document</text><!--MD5=[3e1237c512a9bba387b5eb108e108981]
class Object\Product\Assets--><rect codeLine="62" fill="#FFF8DC" height="62.0234" id="Object\Product\Assets" style="stroke:#696969;stroke-width:1.0;" width="81" x="45.5" y="257.6406"/><text fill="#000000" font-family="sans-serif" font-size="12" font-style="italic" lengthAdjust="spacing" textLength="55" x="58.5" y="275.0977">«relation»</text><text fill="#000000" font-family="sans-serif" font-size="12" font-weight="bold" lengthAdjust="spacing" textLength="40" x="66" y="290.1914">Assets</text><line style="stroke:#696969;stroke-width:1.0;" x1="46.5" x2="125.5" y1="297.8281" y2="297.8281"/><text fill="#000000" font-family="sans-serif" font-size="11" font-weight="bold" lengthAdjust="spacing" textLength="31" x="51.5" y="313.2471">name</text><text fill="#000000" font-family="sans-serif" font-size="11" lengthAdjust="spacing" textLength="38" x="82.5" y="313.2471">:  select</text><ellipse cx="8" cy="288.6406" fill="#000000" rx="2" ry="2" style="stroke:none;stroke-width:1.0;"/><!--MD5=[755400885957d75f537471626d43ddfe]
link Asset\Image to Asset--><path codeLine="67" d="M258.3,308.7706 C250.67,339.2506 234.76,400.6106 218,451.6406 C216.89,455.0106 215.7,458.5006 214.48,461.9906 " fill="none" id="Asset\Image-to-Asset" style="stroke:#696969;stroke-width:1.0;"/><polygon fill="none" points="220.91,464.7906,207.5,481.2006,207.75,460.0106,220.91,464.7906" style="stroke:#696969;stroke-width:1.0;"/><!--MD5=[8dfabef5107543c18107a087b6cfeece]
link Asset\Archive to Object\Product\Assets\Association--><path codeLine="68" d="M164.18,420.7306 C145.04,438.2706 116.82,464.1306 97.72,481.6506 " fill="none" id="Asset\Archive-to-Object\Product\Assets\Association" style="stroke:#696969;stroke-width:1.0;stroke-dasharray:7.0,7.0;"/><polygon fill="none" points="102.26,486.9806,82.79,495.3306,92.8,476.6606,102.26,486.9806" style="stroke:#696969;stroke-width:1.0;"/><!--MD5=[8dd25ccd727105254bd9080d12e3a7f8]
link Asset\Archive to Asset--><path codeLine="69" d="M187.89,420.7306 C189.66,432.3706 191.98,447.6806 194.11,461.7706 " fill="none" id="Asset\Archive-to-Asset" style="stroke:#696969;stroke-width:1.0;"/><polygon fill="none" points="201.04,460.7906,197.12,481.6106,187.2,462.8806,201.04,460.7906" style="stroke:#696969;stroke-width:1.0;"/><!--MD5=[9d1a99dd8f89e9caf012eecb13b62a0e]
link Asset\Document to Object\Product\Assets\Association--><path codeLine="70" d="M89.92,420.7306 C87.61,435.0106 84.41,454.8106 81.77,471.1306 " fill="none" id="Asset\Document-to-Object\Product\Assets\Association" style="stroke:#696969;stroke-width:1.0;stroke-dasharray:7.0,7.0;"/><polygon fill="none" points="88.67,472.3106,78.57,490.9306,74.85,470.0706,88.67,472.3106" style="stroke:#696969;stroke-width:1.0;"/><!--MD5=[f60da1cc4bf1cb56f8b031cd841ea59c]
link Asset\Document to Asset--><path codeLine="71" d="M113.63,420.7306 C128.06,434.0806 147.71,452.2606 164.61,467.9006 " fill="none" id="Asset\Document-to-Asset" style="stroke:#696969;stroke-width:1.0;"/><polygon fill="none" points="169.51,462.8906,179.43,481.6106,160,473.1706,169.51,462.8906" style="stroke:#696969;stroke-width:1.0;"/><!--MD5=[61f6a60ce23e8e47c9cc8ea2a45d2b1e]
link Object\Product to Object\Color--><path codeLine="72" d="M339.94,117.7406 C404.9,162.2406 503.75,229.9306 554.84,264.9306 " fill="none" id="Object\Product-Object\Color" style="stroke:#696969;stroke-width:1.0;"/><polygon fill="#000000" points="462.1252,190.6418,456.3234,183.1059,453.0019,187.9553,462.1252,190.6418" style="stroke:#000000;stroke-width:1.0;"/><text fill="#000000" font-family="sans-serif" font-size="13" lengthAdjust="spacing" textLength="35" x="467" y="193.1357">colors</text><text fill="#000000" font-family="sans-serif" font-size="13" lengthAdjust="spacing" textLength="20" x="328.3773" y="139.5323">0..*</text><text fill="#000000" font-family="sans-serif" font-size="13" lengthAdjust="spacing" textLength="20" x="523.7375" y="254.3541">0..*</text><!--MD5=[2c823bcf8cc50a90399521fc13a42fe1]
link Object\Product to Object\Category--><path codeLine="73" d="M302.7,117.7406 C329.23,162.2406 369.59,229.9306 390.46,264.9306 " fill="none" id="Object\Product-Object\Category" style="stroke:#696969;stroke-width:1.0;"/><polygon fill="#000000" points="355.5606,192.111,353.4527,182.8369,348.4042,185.8471,355.5606,192.111" style="stroke:#000000;stroke-width:1.0;"/><text fill="#000000" font-family="sans-serif" font-size="13" lengthAdjust="spacing" textLength="50" x="362" y="193.1357">category</text><text fill="#000000" font-family="sans-serif" font-size="13" lengthAdjust="spacing" textLength="20" x="285.2022" y="139.5323">0..*</text><text fill="#000000" font-family="sans-serif" font-size="13" lengthAdjust="spacing" textLength="22" x="362.1716" y="254.3541">0..1</text><!--MD5=[1deaad7475d41806062c37e36577c0df]
link Object\Product to Asset\Image--><path codeLine="74" d="M208.98,117.7406 C189.08,134.1506 169.79,154.7506 159,178.6406 C138.82,223.3406 203.99,261.0306 240.31,278.0006 " fill="none" id="Object\Product-Asset\Image" style="stroke:#696969;stroke-width:1.0;"/><polygon fill="#000000" points="164.9593,192.7235,166.1082,183.2826,160.3396,184.4103,164.9593,192.7235" style="stroke:#000000;stroke-width:1.0;"/><text fill="#000000" font-family="sans-serif" font-size="13" lengthAdjust="spacing" textLength="60" x="173" y="193.1357">heroImage</text><text fill="#000000" font-family="sans-serif" font-size="13" lengthAdjust="spacing" textLength="20" x="176.5456" y="139.5323">0..*</text><text fill="#000000" font-family="sans-serif" font-size="13" lengthAdjust="spacing" textLength="22" x="210.5192" y="271.2042">0..1</text><!--MD5=[1deaad7475d41806062c37e36577c0df]
link Object\Product to Asset\Image--><path codeLine="75" d="M274.17,117.7406 C271.14,163.8206 266.47,234.7706 264.26,268.5306 " fill="none" id="Object\Product-Asset\Image-1" style="stroke:#696969;stroke-width:1.0;"/><polygon fill="#000000" points="274.6721,192.8056,278.1979,183.9728,272.3327,183.5873,274.6721,192.8056" style="stroke:#000000;stroke-width:1.0;"/><text fill="#000000" font-family="sans-serif" font-size="13" lengthAdjust="spacing" textLength="42" x="284" y="193.1357">images</text><text fill="#000000" font-family="sans-serif" font-size="13" lengthAdjust="spacing" textLength="20" x="252.1252" y="139.5323">0..*</text><text fill="#000000" font-family="sans-serif" font-size="13" lengthAdjust="spacing" textLength="20" x="241.6926" y="257.7925">0..*</text><!--MD5=[94fc832f27902a5e2d8d9a4d3698a87c]
link Object\Product to apoint19247--><path d="M185.66,117.6506 C154.64,134.4406 120.82,155.2806 93,178.6406 C49.26,215.3606 13.38,278.0106 8.55,286.6406 " fill="none" id="Object\Product-apoint19247" style="stroke:#696969;stroke-width:1.0;"/><polygon fill="#000000" points="94.3825,191.268,102.9554,187.1503,98.8978,182.8977,94.3825,191.268" style="stroke:#000000;stroke-width:1.0;"/><text fill="#000000" font-family="sans-serif" font-size="13" lengthAdjust="spacing" textLength="39" x="107" y="193.1357">assets</text><text fill="#000000" font-family="sans-serif" font-size="13" lengthAdjust="spacing" textLength="20" x="149.5089" y="139.428">0..*</text><!--MD5=[343d37b98d0f81c842176857b8b7cf0a]
link apoint19247 to Object\Product\Assets\Association--><path d="M8.22,290.7106 C10.18,299.9606 24.77,367.6606 43,420.6406 C52.33,447.7506 66.54,478.6906 73.25,492.8406 " fill="none" id="apoint19247-Object\Product\Assets\Association" style="stroke:#696969;stroke-width:1.0;"/><text fill="#000000" font-family="sans-serif" font-size="13" lengthAdjust="spacing" textLength="20" x="43.7969" y="478.9066">0..*</text><!--MD5=[9ec94474935240e92db6511446e64fac]
link apoint19247 to Object\Product\Assets--><path d="M10.13,288.6406 C21.89,288.6406 33.64,288.6406 45.4,288.6406 " fill="none" id="apoint19247-Object\Product\Assets" style="stroke:#696969;stroke-width:1.0;"/><!--MD5=[0530e1645080ea0c81d4ce3c70050d10]
@startuml

hide empty attributes
hide empty methods
hide circle

skinparam shadowing false
skinparam classFontStyle Bold
skinparam ActivityBackgroundColor Silver
skinparam ActivityBorderColor DimGray

skinparam class {
    BackgroundColor Cornsilk
    ArrowColor DimGray
    BorderThickness 1
    BorderColor DimGray
    BackgroundColor<<block>> Silver
    BackgroundColor<<objectbrick>> LightPink
    BackgroundColor<<fieldcollection>> LightPink
    BackgroundColor<<classification>> LightPink
    BackgroundColor<<asset>> PowderBlue
    BackgroundColor<<document>> PaleGreen
}

title "Sample"

class "Image" as Asset\Image <<asset>> {
}


class "Asset" as Asset <<asset>> {
}


class "Category" as Object\Category {
    **name**: varchar[190] / input
}


class "Color" as Object\Color {
    **name**: varchar[190] / input <&globe>
}


class "Product" as Object\Product {
    **gtin**: varchar[190] / input
    **name**: varchar[190] / input <&globe>
    **length**: float / quantityValue [m/cm/mm]
    **width**: float / quantityValue [cm/m/mm]
}


diamond Object\Product\Assets\Association

class "Archive" as Asset\Archive <<asset>> {
}


class "Document" as Asset\Document <<asset>> {
}


class "Assets" as Object\Product\Assets <<relation>> {
    **name**:  select
}


Asset\Image - -|> Asset
Asset\Archive ..|> Object\Product\Assets\Association
Asset\Archive - -|> Asset
Asset\Document ..|> Object\Product\Assets\Association
Asset\Document - -|> Asset
Object\Product "0..*" - - - "0..*" Object\Color : colors >
Object\Product "0..*" - - - "0..1" Object\Category : category >
Object\Product "0..*" - - - "0..1" Asset\Image : heroImage >
Object\Product "0..*" - - - "0..*" Asset\Image : images >
Object\Product "0..*" - - - "0..*" Object\Product\Assets\Association : assets >
(Object\Product,Object\Product\Assets\Association) - - Object\Product\Assets

@enduml

PlantUML version 1.2021.00(Sun Jan 10 11:25:05 CET 2021)
(GPL source distribution)
Java Runtime: OpenJDK Runtime Environment
JVM: OpenJDK 64-Bit Server VM
Default Encoding: Cp1252
Language: de
Country: CH
--></g></svg>