<?xml version="1.0" encoding="UTF-8" standalone="no"?><svg xmlns="http://www.w3.org/2000/svg" xmlns:xlink="http://www.w3.org/1999/xlink" contentScriptType="application/ecmascript" contentStyleType="text/css" height="803px" preserveAspectRatio="none" style="width:791px;height:803px;" version="1.1" viewBox="0 0 791 803" width="791px" zoomAndPan="magnify"><defs/><g><text fill="#000000" font-family="sans-serif" font-size="18" lengthAdjust="spacing" textLength="176" x="301" y="18.6855">Class diagram sample</text><!--MD5=[fa7b1b04eb5b4d76077831360fd36dbf]
class Asset\Image--><rect codeLine="26" fill="#B0E0E6" height="40.1875" id="Asset\Image" style="stroke:#696969;stroke-width:1.0;" width="45" x="234.5" y="367.1406"/><text fill="#000000" font-family="sans-serif" font-size="12" font-style="italic" lengthAdjust="spacing" textLength="43" x="235.5" y="384.5977">«asset»</text><text fill="#000000" font-family="sans-serif" font-size="12" font-weight="bold" lengthAdjust="spacing" textLength="35" x="239.5" y="399.6914">Image</text><!--MD5=[751a80e395721099d806782fc3bbd655]
class Asset--><rect codeLine="30" fill="#B0E0E6" height="40.1875" id="Asset" style="stroke:#696969;stroke-width:1.0;" width="45" x="174.5" y="757.6406"/><text fill="#000000" font-family="sans-serif" font-size="12" font-style="italic" lengthAdjust="spacing" textLength="43" x="175.5" y="775.0977">«asset»</text><text fill="#000000" font-family="sans-serif" font-size="12" font-weight="bold" lengthAdjust="spacing" textLength="33" x="180.5" y="790.1914">Asset</text><!--MD5=[b076e8850c7b1df38f192180768a5fee]
class Object\Category--><rect codeLine="34" fill="#FFF8DC" height="46.9297" id="Object\Category" style="stroke:#696969;stroke-width:1.0;" width="143" x="314.5" y="363.6406"/><text fill="#000000" font-family="sans-serif" font-size="12" font-weight="bold" lengthAdjust="spacing" textLength="51" x="360.5" y="381.0977">Category</text><line style="stroke:#696969;stroke-width:1.0;" x1="315.5" x2="456.5" y1="388.7344" y2="388.7344"/><text fill="#000000" font-family="sans-serif" font-size="11" font-weight="bold" lengthAdjust="spacing" textLength="31" x="320.5" y="404.1533">name</text><text fill="#000000" font-family="sans-serif" font-size="11" lengthAdjust="spacing" textLength="100" x="351.5" y="404.1533">: varchar[190] / input</text><!--MD5=[881f79c812f9adbfb0b1112bc9cae5a9]
class Object\Color--><rect codeLine="39" fill="#FFF8DC" height="46.9297" id="Object\Color" style="stroke:#696969;stroke-width:1.0;" width="155.3333" x="492.5" y="363.6406"/><text fill="#000000" font-family="sans-serif" font-size="12" font-weight="bold" lengthAdjust="spacing" textLength="30" x="555.1667" y="381.0977">Color</text><line style="stroke:#696969;stroke-width:1.0;" x1="493.5" x2="646.8333" y1="388.7344" y2="388.7344"/><text fill="#000000" font-family="sans-serif" font-size="11" font-weight="bold" lengthAdjust="spacing" textLength="31" x="498.5" y="404.1533">name</text><text fill="#000000" font-family="sans-serif" font-size="11" lengthAdjust="spacing" textLength="100" x="529.5" y="404.1533">: varchar[190] / input</text><path d="M637.1667,396.487 C635.1408,396.487 633.5,398.1278 633.5,400.1536 C633.5,402.1795 635.1408,403.8203 637.1667,403.8203 C639.1925,403.8203 640.8333,402.1795 640.8333,400.1536 C640.8333,398.1278 639.1925,396.487 637.1667,396.487 M637.1667,397.4036 C637.4692,397.4036 637.7533,397.4861 638.0283,397.5778 C637.8358,397.7611 637.6158,397.9261 637.6525,398.0911 C637.6892,398.2561 638.285,398.2103 638.285,398.5495 C638.285,398.797 637.9,398.8703 638.1658,399.1545 C638.4867,399.4753 637.5792,400.0528 637.5608,400.4745 C637.5333,401.2353 638.3308,401.3636 638.9633,401.3636 C639.3483,401.3636 639.4492,401.547 639.4217,401.767 C638.9267,402.4728 638.0833,402.9128 637.1575,402.9128 C636.8092,402.9128 636.4883,402.8303 636.1858,402.7111 C636.3875,402.3078 635.9292,401.5103 635.4983,401.2536 C635.2875,401.0428 634.8383,401.1253 634.5817,401.0245 C634.4992,400.777 634.4167,400.5295 634.4075,400.2545 C634.435,400.2086 634.4808,400.172 634.5542,400.172 C634.7283,400.172 634.9667,400.5203 635.095,400.4836 C635.26,400.447 634.4167,399.2828 634.8108,399.0536 C634.9942,398.9436 635.3608,399.4111 635.2417,398.907 C635.1317,398.4395 635.5717,398.6503 635.8467,398.5311 C636.085,398.4303 636.2592,398.1553 635.9658,397.9903 C635.9108,397.9628 635.8467,397.8986 635.7642,397.8161 C636.1767,397.5686 636.6533,397.4128 637.1667,397.4128 M639.2842,398.412 C639.4492,398.6136 639.5775,398.8336 639.6875,399.072 C639.6875,399.0811 639.6875,399.0903 639.6875,399.0995 C639.6508,399.1636 639.5867,399.2003 639.4858,399.3011 C639.2292,399.5578 639.1925,399.1086 639.0825,399.017 C638.9633,398.907 638.5325,399.0353 638.4775,398.8978 C638.4133,398.7328 638.9358,398.5128 639.2842,398.412 " fill="#000000" style="stroke:;stroke-width:0.0;stroke-dasharray:;"/><!--MD5=[1b5dc5a0c95636e215c17208603ffe5d]
class Object\Product--><rect codeLine="44" fill="#FFF8DC" height="102.2734" id="Object\Product" style="stroke:#696969;stroke-width:1.0;" width="202" x="221" y="29.6406"/><text fill="#000000" font-family="sans-serif" font-size="12" font-weight="bold" lengthAdjust="spacing" textLength="45" x="299.5" y="47.0977">Product</text><line style="stroke:#696969;stroke-width:1.0;" x1="222" x2="422" y1="54.7344" y2="54.7344"/><text fill="#000000" font-family="sans-serif" font-size="11" font-weight="bold" lengthAdjust="spacing" textLength="21" x="227" y="70.1533">gtin</text><text fill="#000000" font-family="sans-serif" font-size="11" lengthAdjust="spacing" textLength="100" x="248" y="70.1533">: varchar[190] / input</text><text fill="#000000" font-family="sans-serif" font-size="11" font-weight="bold" lengthAdjust="spacing" textLength="31" x="227" y="83.9893">name</text><text fill="#000000" font-family="sans-serif" font-size="11" lengthAdjust="spacing" textLength="100" x="258" y="83.9893">: varchar[190] / input</text><path d="M365.6667,76.3229 C363.6408,76.3229 362,77.9638 362,79.9896 C362,82.0154 363.6408,83.6563 365.6667,83.6563 C367.6925,83.6563 369.3333,82.0154 369.3333,79.9896 C369.3333,77.9638 367.6925,76.3229 365.6667,76.3229 M365.6667,77.2396 C365.9692,77.2396 366.2533,77.3221 366.5283,77.4138 C366.3358,77.5971 366.1158,77.7621 366.1525,77.9271 C366.1892,78.0921 366.785,78.0463 366.785,78.3854 C366.785,78.6329 366.4,78.7063 366.6658,78.9904 C366.9867,79.3113 366.0792,79.8888 366.0608,80.3104 C366.0333,81.0713 366.8308,81.1996 367.4633,81.1996 C367.8483,81.1996 367.9492,81.3829 367.9217,81.6029 C367.4267,82.3088 366.5833,82.7488 365.6575,82.7488 C365.3092,82.7488 364.9883,82.6663 364.6858,82.5471 C364.8875,82.1438 364.4292,81.3463 363.9983,81.0896 C363.7875,80.8788 363.3383,80.9613 363.0817,80.8604 C362.9992,80.6129 362.9167,80.3654 362.9075,80.0904 C362.935,80.0446 362.9808,80.0079 363.0542,80.0079 C363.2283,80.0079 363.4667,80.3563 363.595,80.3196 C363.76,80.2829 362.9167,79.1188 363.3108,78.8896 C363.4942,78.7796 363.8608,79.2471 363.7417,78.7429 C363.6317,78.2754 364.0717,78.4863 364.3467,78.3671 C364.585,78.2663 364.7592,77.9913 364.4658,77.8263 C364.4108,77.7988 364.3467,77.7346 364.2642,77.6521 C364.6767,77.4046 365.1533,77.2488 365.6667,77.2488 M367.7842,78.2479 C367.9492,78.4496 368.0775,78.6696 368.1875,78.9079 C368.1875,78.9171 368.1875,78.9263 368.1875,78.9354 C368.1508,78.9996 368.0867,79.0363 367.9858,79.1371 C367.7292,79.3938 367.6925,78.9446 367.5825,78.8529 C367.4633,78.7429 367.0325,78.8713 366.9775,78.7338 C366.9133,78.5688 367.4358,78.3488 367.7842,78.2479 " fill="#000000" style="stroke:;stroke-width:0.0;stroke-dasharray:;"/><text fill="#000000" font-family="sans-serif" font-size="11" font-weight="bold" lengthAdjust="spacing" textLength="63" x="227" y="97.8252">description</text><text fill="#000000" font-family="sans-serif" font-size="11" lengthAdjust="spacing" textLength="79" x="290" y="97.8252">: text / wysiwyg</text><path d="M376.6667,90.1589 C374.6408,90.1589 373,91.7997 373,93.8255 C373,95.8514 374.6408,97.4922 376.6667,97.4922 C378.6925,97.4922 380.3333,95.8514 380.3333,93.8255 C380.3333,91.7997 378.6925,90.1589 376.6667,90.1589 M376.6667,91.0755 C376.9692,91.0755 377.2533,91.158 377.5283,91.2497 C377.3358,91.433 377.1158,91.598 377.1525,91.763 C377.1892,91.928 377.785,91.8822 377.785,92.2214 C377.785,92.4689 377.4,92.5422 377.6658,92.8264 C377.9867,93.1472 377.0792,93.7247 377.0608,94.1464 C377.0333,94.9072 377.8308,95.0355 378.4633,95.0355 C378.8483,95.0355 378.9492,95.2189 378.9217,95.4389 C378.4267,96.1447 377.5833,96.5847 376.6575,96.5847 C376.3092,96.5847 375.9883,96.5022 375.6858,96.383 C375.8875,95.9797 375.4292,95.1822 374.9983,94.9255 C374.7875,94.7147 374.3383,94.7972 374.0817,94.6964 C373.9992,94.4489 373.9167,94.2014 373.9075,93.9264 C373.935,93.8805 373.9808,93.8439 374.0542,93.8439 C374.2283,93.8439 374.4667,94.1922 374.595,94.1555 C374.76,94.1189 373.9167,92.9547 374.3108,92.7255 C374.4942,92.6155 374.8608,93.083 374.7417,92.5789 C374.6317,92.1114 375.0717,92.3222 375.3467,92.203 C375.585,92.1022 375.7592,91.8272 375.4658,91.6622 C375.4108,91.6347 375.3467,91.5705 375.2642,91.488 C375.6767,91.2405 376.1533,91.0847 376.6667,91.0847 M378.7842,92.0839 C378.9492,92.2855 379.0775,92.5055 379.1875,92.7439 C379.1875,92.753 379.1875,92.7622 379.1875,92.7714 C379.1508,92.8355 379.0867,92.8722 378.9858,92.973 C378.7292,93.2297 378.6925,92.7805 378.5825,92.6889 C378.4633,92.5789 378.0325,92.7072 377.9775,92.5697 C377.9133,92.4047 378.4358,92.1847 378.7842,92.0839 " fill="#000000" style="stroke:;stroke-width:0.0;stroke-dasharray:;"/><text fill="#000000" font-family="sans-serif" font-size="11" font-weight="bold" lengthAdjust="spacing" textLength="35" x="227" y="111.6611">length</text><text fill="#000000" font-family="sans-serif" font-size="11" lengthAdjust="spacing" textLength="155" x="262" y="111.6611">: float / quantityValue [m/cm/mm]</text><text fill="#000000" font-family="sans-serif" font-size="11" font-weight="bold" lengthAdjust="spacing" textLength="31" x="227" y="125.4971">width</text><text fill="#000000" font-family="sans-serif" font-size="11" lengthAdjust="spacing" textLength="155" x="258" y="125.4971">: float / quantityValue [cm/m/mm]</text><polygon fill="#C0C0C0" points="74,765.6406,86,777.6406,74,789.6406,62,777.6406,74,765.6406" style="stroke:#696969;stroke-width:1.5;"/><!--MD5=[ef698d8d78ed8dfb07a819144feb0b4d]
class Asset\Archive--><rect codeLine="55" fill="#B0E0E6" height="40.1875" id="Asset\Archive" style="stroke:#696969;stroke-width:1.0;" width="49" x="157.5" y="656.6406"/><text fill="#000000" font-family="sans-serif" font-size="12" font-style="italic" lengthAdjust="spacing" textLength="43" x="160.5" y="674.0977">«asset»</text><text fill="#000000" font-family="sans-serif" font-size="12" font-weight="bold" lengthAdjust="spacing" textLength="43" x="160.5" y="689.1914">Archive</text><!--MD5=[7b61b83b3ed61aa3993495c5c5846dc5]
class Asset\Document--><rect codeLine="59" fill="#B0E0E6" height="40.1875" id="Asset\Document" style="stroke:#696969;stroke-width:1.0;" width="64" x="58" y="656.6406"/><text fill="#000000" font-family="sans-serif" font-size="12" font-style="italic" lengthAdjust="spacing" textLength="43" x="68.5" y="674.0977">«asset»</text><text fill="#000000" font-family="sans-serif" font-size="12" font-weight="bold" lengthAdjust="spacing" textLength="58" x="61" y="689.1914">Document</text><!--MD5=[3e1237c512a9bba387b5eb108e108981]
class Object\Product\Assets--><rect codeLine="63" fill="#FFF8DC" height="62.0234" id="Object\Product\Assets" style="stroke:#696969;stroke-width:1.0;" width="94" x="45" y="471.6406"/><text fill="#000000" font-family="sans-serif" font-size="12" font-style="italic" lengthAdjust="spacing" textLength="55" x="64.5" y="489.0977">«relation»</text><text fill="#000000" font-family="sans-serif" font-size="12" font-weight="bold" lengthAdjust="spacing" textLength="40" x="72" y="504.1914">Assets</text><line style="stroke:#696969;stroke-width:1.0;" x1="46" x2="138" y1="511.8281" y2="511.8281"/><text fill="#000000" font-family="sans-serif" font-size="11" font-weight="bold" lengthAdjust="spacing" textLength="44" x="51" y="527.2471">doctype</text><text fill="#000000" font-family="sans-serif" font-size="11" lengthAdjust="spacing" textLength="38" x="95" y="527.2471">:  select</text><!--MD5=[34579600e8ab87c1c7ae620cee4aa010]
class Object\Product\Usps--><rect codeLine="68" fill="#C0C0C0" height="75.8594" id="Object\Product\Usps" style="stroke:#696969;stroke-width:1.0;" width="154" x="630" y="209.6406"/><text fill="#000000" font-family="sans-serif" font-size="12" font-style="italic" lengthAdjust="spacing" textLength="45" x="684.5" y="227.0977">«block»</text><text fill="#000000" font-family="sans-serif" font-size="12" font-weight="bold" lengthAdjust="spacing" textLength="29" x="692.5" y="242.1914">Usps</text><line style="stroke:#696969;stroke-width:1.0;" x1="631" x2="783" y1="249.8281" y2="249.8281"/><text fill="#000000" font-family="sans-serif" font-size="11" font-weight="bold" lengthAdjust="spacing" textLength="21" x="636" y="265.2471">title</text><text fill="#000000" font-family="sans-serif" font-size="11" lengthAdjust="spacing" textLength="100" x="657" y="265.2471">: varchar[190] / input</text><text fill="#000000" font-family="sans-serif" font-size="11" font-weight="bold" lengthAdjust="spacing" textLength="63" x="636" y="279.083">description</text><text fill="#000000" font-family="sans-serif" font-size="11" lengthAdjust="spacing" textLength="79" x="699" y="279.083">: text / wysiwyg</text><ellipse cx="8" cy="502.6406" fill="#000000" rx="2" ry="2" style="stroke:none;stroke-width:1.0;"/><!--MD5=[755400885957d75f537471626d43ddfe]
link Asset\Image to Asset--><path codeLine="74" d="M257.82,407.4206 C258.71,429.9906 260,468.5206 260,501.6406 C260,501.6406 260,501.6406 260,677.6406 C260,701.6906 246.6,724.6206 232.16,742.3406 " fill="none" id="Asset\Image-to-Asset" style="stroke:#696969;stroke-width:1.0;"/><polygon fill="none" points="237.26,747.1306,218.68,757.3206,226.86,737.7706,237.26,747.1306" style="stroke:#696969;stroke-width:1.0;"/><!--MD5=[8dfabef5107543c18107a087b6cfeece]
link Asset\Archive to Object\Product\Assets\Association--><path codeLine="75" d="M161.18,696.7306 C142.04,714.2706 113.82,740.1306 94.72,757.6506 " fill="none" id="Asset\Archive-to-Object\Product\Assets\Association" style="stroke:#696969;stroke-width:1.0;stroke-dasharray:7.0,7.0;"/><polygon fill="none" points="99.26,762.9806,79.79,771.3306,89.8,752.6606,99.26,762.9806" style="stroke:#696969;stroke-width:1.0;"/><!--MD5=[8dd25ccd727105254bd9080d12e3a7f8]
link Asset\Archive to Asset--><path codeLine="76" d="M184.89,696.7306 C186.66,708.3706 188.98,723.6806 191.11,737.7706 " fill="none" id="Asset\Archive-to-Asset" style="stroke:#696969;stroke-width:1.0;"/><polygon fill="none" points="198.04,736.7906,194.12,757.6106,184.2,738.8806,198.04,736.7906" style="stroke:#696969;stroke-width:1.0;"/><!--MD5=[9d1a99dd8f89e9caf012eecb13b62a0e]
link Asset\Document to Object\Product\Assets\Association--><path codeLine="77" d="M86.92,696.7306 C84.61,711.0106 81.41,730.8106 78.77,747.1306 " fill="none" id="Asset\Document-to-Object\Product\Assets\Association" style="stroke:#696969;stroke-width:1.0;stroke-dasharray:7.0,7.0;"/><polygon fill="none" points="85.67,748.3106,75.57,766.9306,71.85,746.0706,85.67,748.3106" style="stroke:#696969;stroke-width:1.0;"/><!--MD5=[f60da1cc4bf1cb56f8b031cd841ea59c]
link Asset\Document to Asset--><path codeLine="78" d="M110.63,696.7306 C125.06,710.0806 144.71,728.2606 161.61,743.9006 " fill="none" id="Asset\Document-to-Asset" style="stroke:#696969;stroke-width:1.0;"/><polygon fill="none" points="166.51,738.8906,176.43,757.6106,157,749.1706,166.51,738.8906" style="stroke:#696969;stroke-width:1.0;"/><!--MD5=[61f6a60ce23e8e47c9cc8ea2a45d2b1e]
link Object\Product to Object\Color--><path codeLine="79" d="M368.91,131.8306 C390.18,155.0906 415.35,183.3506 437,209.6406 C481.14,263.2506 529.35,329.2806 553.81,363.3706 " fill="none" id="Object\Product-Object\Color" style="stroke:#696969;stroke-width:1.0;"/><polygon fill="#000000" points="503.1201,251.7235,499.7723,242.8216,495.1793,246.4894,503.1201,251.7235" style="stroke:#000000;stroke-width:1.0;"/><text fill="#000000" font-family="sans-serif" font-size="13" lengthAdjust="spacing" textLength="35" x="509" y="253.1357">colors</text><text fill="#000000" font-family="sans-serif" font-size="13" lengthAdjust="spacing" textLength="20" x="353.8698" y="153.2846">0..*</text><text fill="#000000" font-family="sans-serif" font-size="13" lengthAdjust="spacing" textLength="20" x="527.0561" y="352.7787">0..*</text><!--MD5=[2c823bcf8cc50a90399521fc13a42fe1]
link Object\Product to Object\Category--><path codeLine="80" d="M332.57,131.9206 C346.66,198.9806 371.02,314.8906 381.26,363.5806 " fill="none" id="Object\Product-Object\Category" style="stroke:#696969;stroke-width:1.0;"/><polygon fill="#000000" points="370.0284,252.7095,371.0441,243.2533,365.2919,244.4623,370.0284,252.7095" style="stroke:#000000;stroke-width:1.0;"/><text fill="#000000" font-family="sans-serif" font-size="13" lengthAdjust="spacing" textLength="50" x="378" y="253.1357">category</text><text fill="#000000" font-family="sans-serif" font-size="13" lengthAdjust="spacing" textLength="20" x="312.6466" y="153.3867">0..*</text><text fill="#000000" font-family="sans-serif" font-size="13" lengthAdjust="spacing" textLength="22" x="355.0299" y="352.6507">0..1</text><!--MD5=[1deaad7475d41806062c37e36577c0df]
link Object\Product to Asset\Image--><path codeLine="81" d="M220.56,129.1406 C189.24,149.2606 158.43,175.9706 141,209.6406 C125.47,239.6406 126.97,254.9206 141,285.6406 C160.15,327.5706 206.39,358.7306 234.37,374.5206 " fill="none" id="Object\Product-Asset\Image" style="stroke:#696969;stroke-width:1.0;"/><polygon fill="#000000" points="146.281,252.8085,148.707,243.6126,142.8384,243.9429,146.281,252.8085" style="stroke:#000000;stroke-width:1.0;"/><text fill="#000000" font-family="sans-serif" font-size="13" lengthAdjust="spacing" textLength="60" x="155" y="253.1357">heroImage</text><text fill="#000000" font-family="sans-serif" font-size="13" lengthAdjust="spacing" textLength="20" x="193.0726" y="146.4345">0..*</text><text fill="#000000" font-family="sans-serif" font-size="13" lengthAdjust="spacing" textLength="22" x="204.5931" y="367.2663">1..1</text><!--MD5=[1deaad7475d41806062c37e36577c0df]
link Object\Product to Asset\Image--><path codeLine="82" d="M305.41,131.6806 C298.08,155.1506 289.82,183.6306 284,209.6406 C271.34,266.2106 262.77,334.3106 259.07,366.9106 " fill="none" id="Object\Product-Asset\Image-1" style="stroke:#696969;stroke-width:1.0;"/><polygon fill="#000000" points="288.0336,252.7221,292.6654,244.4156,286.8983,243.2796,288.0336,252.7221" style="stroke:#000000;stroke-width:1.0;"/><text fill="#000000" font-family="sans-serif" font-size="13" lengthAdjust="spacing" textLength="42" x="298" y="253.1357">images</text><text fill="#000000" font-family="sans-serif" font-size="13" lengthAdjust="spacing" textLength="20" x="281.6708" y="153.4837">0..*</text><text fill="#000000" font-family="sans-serif" font-size="13" lengthAdjust="spacing" textLength="20" x="236.7406" y="356.1373">0..*</text><!--MD5=[c5b81f40acb76c6bc1aac1b4c2cb7ee7]
link Object\Product to apoint1085--><path d="M220.74,120.0106 C197.75,131.3806 174.41,145.2706 155,161.6406 C34.07,263.6306 9.81,483.5606 8.1,500.5906 " fill="none" id="Object\Product-apoint1085" style="stroke:#696969;stroke-width:1.0;"/><polygon fill="#000000" points="56.5612,329.1813,63.5386,322.7186,58.4074,319.8516,56.5612,329.1813" style="stroke:#000000;stroke-width:1.0;"/><text fill="#000000" font-family="sans-serif" font-size="13" lengthAdjust="spacing" textLength="39" x="68" y="330.1357">assets</text><text fill="#000000" font-family="sans-serif" font-size="13" lengthAdjust="spacing" textLength="20" x="192.917" y="119.7142">0..*</text><!--MD5=[59d8611da65d1449a92f2c473fe3abaf]
link apoint1085 to Object\Product\Assets\Association--><path d="M8.09,504.8906 C9.03,517.2306 17.23,618.3706 40,696.6406 C48.09,724.4606 63.17,755.5506 70.21,769.3606 " fill="none" id="apoint1085-Object\Product\Assets\Association" style="stroke:#696969;stroke-width:1.0;"/><text fill="#000000" font-family="sans-serif" font-size="13" lengthAdjust="spacing" textLength="20" x="40.0399" y="754.9789">0..*</text><!--MD5=[42e230c9d1b48cda5966f8433cfeb0c2]
link apoint1085 to Object\Product\Assets--><path d="M10.3,502.6406 C21.79,502.6406 33.28,502.6406 44.77,502.6406 " fill="none" id="apoint1085-Object\Product\Assets" style="stroke:#696969;stroke-width:1.0;"/><!--MD5=[6551021703b6c372f0e759701668b25e]
reverse link Object\Product to Object\Product\Usps--><path codeLine="85" d="M435.83,111.7306 C479.06,124.8206 528.18,141.7506 571,161.6406 C599.79,175.0106 629.91,193.3306 654.46,209.5306 " fill="none" id="Object\Product-backto-Object\Product\Usps" style="stroke:#696969;stroke-width:1.0;"/><polygon fill="#696969" points="423.21,107.9606,427.8111,113.5131,434.7061,111.4015,430.105,105.8491,423.21,107.9606" style="stroke:#696969;stroke-width:1.0;"/><polygon fill="#000000" points="611.5642,172.8581,604.5076,166.4819,602.1074,171.8474,611.5642,172.8581" style="stroke:#000000;stroke-width:1.0;"/><text fill="#000000" font-family="sans-serif" font-size="13" lengthAdjust="spacing" textLength="28" x="616" y="176.1357">usps</text><text fill="#000000" font-family="sans-serif" font-size="13" lengthAdjust="spacing" textLength="20" x="431.0295" y="106.8169">0..*</text><text fill="#000000" font-family="sans-serif" font-size="13" lengthAdjust="spacing" textLength="22" x="621.1419" y="198.8562">0..5</text><!--MD5=[5e438d6d2aa5b8fb4c6e7dca97609a1f]
@startuml

hide empty attributes
hide empty methods
hide circle

skinparam shadowing false
skinparam classFontStyle Bold
skinparam ActivityBackgroundColor Silver
skinparam ActivityBorderColor DimGray

skinparam class {
    BackgroundColor Cornsilk
    ArrowColor DimGray
    BorderThickness 1
    BorderColor DimGray
    BackgroundColor<<block>> Silver
    BackgroundColor<<objectbrick>> LightPink
    BackgroundColor<<fieldcollection>> LightPink
    BackgroundColor<<classification>> LightPink
    BackgroundColor<<asset>> PowderBlue
    BackgroundColor<<document>> PaleGreen
}

title "Class diagram sample"

class "Image" as Asset\Image <<asset>> {
}


class "Asset" as Asset <<asset>> {
}


class "Category" as Object\Category {
    **name**: varchar[190] / input
}


class "Color" as Object\Color {
    **name**: varchar[190] / input <&globe>
}


class "Product" as Object\Product {
    **gtin**: varchar[190] / input
    **name**: varchar[190] / input <&globe>
    **description**: text / wysiwyg <&globe>
    **length**: float / quantityValue [m/cm/mm]
    **width**: float / quantityValue [cm/m/mm]
}


diamond Object\Product\Assets\Association

class "Archive" as Asset\Archive <<asset>> {
}


class "Document" as Asset\Document <<asset>> {
}


class "Assets" as Object\Product\Assets <<relation>> {
    **doctype**:  select
}


class "Usps" as Object\Product\Usps <<block>> {
    **title**: varchar[190] / input
    **description**: text / wysiwyg
}


Asset\Image - -|> Asset
Asset\Archive ..|> Object\Product\Assets\Association
Asset\Archive - -|> Asset
Asset\Document ..|> Object\Product\Assets\Association
Asset\Document - -|> Asset
Object\Product "0..*" - - - "0..*" Object\Color : colors >
Object\Product "0..*" - - - "0..1" Object\Category : category >
Object\Product "0..*" - - - "1..1" Asset\Image : heroImage >
Object\Product "0..*" - - - "0..*" Asset\Image : images >
Object\Product "0..*" - - - - "0..*" Object\Product\Assets\Association : assets >
(Object\Product,Object\Product\Assets\Association) - - Object\Product\Assets
Object\Product "0..*" *- - "0..5" Object\Product\Usps : usps >

@enduml

PlantUML version 1.2021.00(Sun Jan 10 11:25:05 CET 2021)
(GPL source distribution)
Java Runtime: OpenJDK Runtime Environment
JVM: OpenJDK 64-Bit Server VM
Default Encoding: Cp1252
Language: de
Country: CH
--></g></svg>